<mxfile host="app.diagrams.net" modified="2023-03-06T09:25:35.900Z" agent="5.0 (Windows NT 10.0; Win64; x64) AppleWebKit/537.36 (KHTML, like Gecko) Chrome/96.0.4664.45 Safari/537.36" etag="Y0PrPAegktq3CvI0vq8e" version="20.8.23" type="github">
  <diagram name="第 1 页" id="2depREerfcmBq1PA4sxw">
    <mxGraphModel dx="1246" dy="655" grid="1" gridSize="10" guides="1" tooltips="1" connect="1" arrows="1" fold="1" page="1" pageScale="1" pageWidth="827" pageHeight="1169" math="0" shadow="0">
      <root>
        <mxCell id="0" />
        <mxCell id="1" parent="0" />
        <mxCell id="WglIiz3RQcRZdJG2cxxD-5" style="edgeStyle=none;curved=1;rounded=0;sketch=1;hachureGap=4;jiggle=2;curveFitting=1;orthogonalLoop=1;jettySize=auto;html=1;exitX=1;exitY=0.5;exitDx=0;exitDy=0;entryX=0.16;entryY=0.55;entryDx=0;entryDy=0;entryPerimeter=0;fontFamily=Times New Roman;fontSize=16;endArrow=open;startSize=14;endSize=14;sourcePerimeterSpacing=8;targetPerimeterSpacing=8;" edge="1" parent="1" source="WglIiz3RQcRZdJG2cxxD-3" target="WglIiz3RQcRZdJG2cxxD-4">
          <mxGeometry relative="1" as="geometry" />
        </mxCell>
        <mxCell id="WglIiz3RQcRZdJG2cxxD-6" value="连接" style="edgeLabel;html=1;align=center;verticalAlign=middle;resizable=0;points=[];fontSize=20;fontFamily=Times New Roman;" vertex="1" connectable="0" parent="WglIiz3RQcRZdJG2cxxD-5">
          <mxGeometry x="-0.7895" y="-2" relative="1" as="geometry">
            <mxPoint x="42" y="-7" as="offset" />
          </mxGeometry>
        </mxCell>
        <mxCell id="WglIiz3RQcRZdJG2cxxD-3" value="" style="shape=image;imageAspect=0;aspect=fixed;verticalLabelPosition=bottom;verticalAlign=top;sketch=1;hachureGap=4;jiggle=2;curveFitting=1;fontFamily=Architects Daughter;fontSource=https%3A%2F%2Ffonts.googleapis.com%2Fcss%3Ffamily%3DArchitects%2BDaughter;fontSize=20;image=https://pic.fx7.top/PicGo/%E6%95%B0%E9%87%87.png;" vertex="1" parent="1">
          <mxGeometry x="50" y="290" width="146.9" height="63" as="geometry" />
        </mxCell>
        <mxCell id="WglIiz3RQcRZdJG2cxxD-4" value="MQTT&lt;br&gt;SERVER" style="ellipse;shape=cloud;whiteSpace=wrap;html=1;hachureGap=4;fontFamily=Times New Roman;fontSize=20;fillColor=#60a917;strokeColor=#2D7600;fontColor=#ffffff;" vertex="1" parent="1">
          <mxGeometry x="470" y="270" width="139.5" height="93" as="geometry" />
        </mxCell>
      </root>
    </mxGraphModel>
  </diagram>
</mxfile>
